<svg width="201" height="60" viewBox="0 0 201 60" fill="none" xmlns="http://www.w3.org/2000/svg">
<path fill-rule="evenodd" clip-rule="evenodd" d="M41.0907 28.9765C40.0862 28.7559 40.3678 28.9613 40.0786 28.1547C40.9537 28.3678 40.7559 28.208 41.0907 28.9765ZM0 8.50729C2.53393 11.3989 5.45593 14.9981 6.62777 20.2181C7.68548 24.8675 7.35067 31.6703 9.57261 35.5206C10.014 36.2892 10.8738 37.0197 11.8098 38.0774C13.5219 40.0101 18.4147 41.4788 20.6975 42.8789C27.0438 46.7749 22.8129 51.2416 22.3259 55.8681L22.4933 56.241C24.2892 55.1224 26.8916 51.7971 28.3069 49.5523C29.9125 47.0108 30.9093 44.0127 32.1725 41.0907C33.3215 38.4198 33.0932 39.1275 34.9956 37.5295C35.7413 36.9055 35.825 36.6164 36.7001 36.038C37.4838 35.5206 40.1547 32.9867 42.1408 32.3399C43.1604 32.0051 45.5117 32.0279 46.7444 32.0279C47.65 32.0279 47.2467 32.2334 47.8022 31.8605C47.9315 31.6703 48.35 32.1268 47.6347 31.4952C47.551 31.4192 47.1021 31.1224 46.9423 31.0235C46.052 30.468 43.4191 29.2961 42.955 28.52C41.1972 27.6525 42.2701 26.4731 38.3817 25.636C36.6164 25.2555 33.6944 24.9664 31.8072 25.0805C32.279 27.1883 34.0596 27.9036 36.0152 28.6798C35.4065 29.1592 34.7064 29.2733 33.8085 29.0983C32.4845 28.8396 30.8561 28.3145 30.3462 27.0666C30.1027 26.4731 29.9049 25.8871 29.6614 25.2403C28.3373 21.7705 23.9239 14.9601 21.2758 12.6468C19.8757 11.4217 17.7451 8.75079 15.7895 7.79962C17.0222 10.6988 20.0659 17.357 17.9125 20.903C17.3951 20.5606 16.5808 19.4876 16.0558 19.0006C15.371 18.3614 14.785 17.7527 14.0241 17.1516C11.1934 14.9448 2.37413 8.20292 0 8.50729Z" fill="#0E9CFC"/>
<path fill-rule="evenodd" clip-rule="evenodd" d="M3.23398 42.6125L3.01331 42.7952C3.47748 44.4236 5.28851 46.2422 7.23651 46.7597C9.28344 47.2999 12.35 46.7368 14.1306 47.8478C14.9068 48.3348 16.0634 48.9816 16.4819 49.598C18.2016 52.1547 18.4984 53.8897 19.3887 56.728C19.4191 56.8193 19.6018 57.3671 19.6246 57.4128C19.8833 57.9531 19.792 57.7324 20.0507 57.9835C20.8878 53.3874 20.4921 46.7825 16.9613 45.0247C14.5415 43.8148 12.3196 44.3703 9.52694 44.3475C6.22447 44.3171 5.62332 43.8224 3.23398 42.6125Z" fill="#0E9CFC"/>
<path fill-rule="evenodd" clip-rule="evenodd" d="M2.65567 0.654407C3.59924 2.44261 3.66772 3.06658 4.88522 4.6189C6.04185 6.08751 7.63221 6.93976 8.07355 7.65504L9.41281 8.43881C9.83132 8.24096 9.76284 8.83449 9.70957 7.99746C9.48129 6.25491 7.98985 4.40583 7.06911 3.35574C5.7603 1.85669 4.90044 1.27838 2.97527 0C2.33608 0.311985 2.85352 -0.182625 2.65567 0.654407Z" fill="#0E9CFC"/>
<path fill-rule="evenodd" clip-rule="evenodd" d="M18.156 59.7261C18.4984 59.7717 18.3843 59.8402 18.4299 59.4674C18.1027 58.014 17.4331 57.2682 16.558 56.6062C15.8275 56.0584 16.0102 55.9138 15.272 55.3735C14.7774 55.0007 14.3589 54.7419 13.8643 54.5289C13.9784 56.0355 14.6633 57.0019 15.5155 57.6411C16.4515 58.3488 17.2657 59.0945 18.156 59.7261Z" fill="#0E9CFC"/>
<path fill-rule="evenodd" clip-rule="evenodd" d="M9.41281 8.43881C9.77045 8.75841 8.88776 8.6747 10.0063 8.70514L9.70958 7.99747C9.76284 8.8345 9.83133 8.24097 9.41281 8.43881Z" fill="#0E9CFC"/>
<path fill-rule="evenodd" clip-rule="evenodd" d="M18.156 59.7261C18.5593 60.0533 17.6309 59.9848 18.681 60L18.4299 59.4673C18.3842 59.8402 18.4984 59.7717 18.156 59.7261Z" fill="#0E9CFC"/>
<path fill-rule="evenodd" clip-rule="evenodd" d="M22.4933 56.241L22.3259 55.8681L22.0824 56.6595L22.4933 56.241Z" fill="#0E9CFC"/>
<path fill-rule="evenodd" clip-rule="evenodd" d="M3.01331 42.7952L3.23398 42.6126L2.6024 42.3615L3.01331 42.7952Z" fill="#0E9CFC"/>
<path d="M69.492 21.6C70.856 21.6 72.0367 21.8273 73.034 22.282C74.046 22.7367 74.8233 23.382 75.366 24.218C75.9087 25.054 76.18 26.044 76.18 27.188C76.18 28.3173 75.9087 29.3073 75.366 30.158C74.8233 30.994 74.046 31.6393 73.034 32.094C72.0367 32.534 70.856 32.754 69.492 32.754H66.39V37H62.826V21.6H69.492ZM69.294 29.85C70.3647 29.85 71.1787 29.6227 71.736 29.168C72.2933 28.6987 72.572 28.0387 72.572 27.188C72.572 26.3227 72.2933 25.6627 71.736 25.208C71.1787 24.7387 70.3647 24.504 69.294 24.504H66.39V29.85H69.294ZM92.8484 21.6V37H89.2844V30.686H82.2884V37H78.7244V21.6H82.2884V27.672H89.2844V21.6H92.8484ZM103.95 37.264C102.351 37.264 100.907 36.9193 99.616 36.23C98.34 35.5407 97.3353 34.5947 96.602 33.392C95.8833 32.1747 95.524 30.8107 95.524 29.3C95.524 27.7893 95.8833 26.4327 96.602 25.23C97.3353 24.0127 98.34 23.0593 99.616 22.37C100.907 21.6807 102.351 21.336 103.95 21.336C105.549 21.336 106.986 21.6807 108.262 22.37C109.538 23.0593 110.543 24.0127 111.276 25.23C112.009 26.4327 112.376 27.7893 112.376 29.3C112.376 30.8107 112.009 32.1747 111.276 33.392C110.543 34.5947 109.538 35.5407 108.262 36.23C106.986 36.9193 105.549 37.264 103.95 37.264ZM103.95 34.228C104.859 34.228 105.681 34.0227 106.414 33.612C107.147 33.1867 107.719 32.6 108.13 31.852C108.555 31.104 108.768 30.2533 108.768 29.3C108.768 28.3467 108.555 27.496 108.13 26.748C107.719 26 107.147 25.4207 106.414 25.01C105.681 24.5847 104.859 24.372 103.95 24.372C103.041 24.372 102.219 24.5847 101.486 25.01C100.753 25.4207 100.173 26 99.748 26.748C99.3373 27.496 99.132 28.3467 99.132 29.3C99.132 30.2533 99.3373 31.104 99.748 31.852C100.173 32.6 100.753 33.1867 101.486 33.612C102.219 34.0227 103.041 34.228 103.95 34.228ZM126.979 34.14V37H115.055V21.6H126.693V24.46H118.597V27.804H125.747V30.576H118.597V34.14H126.979ZM143.938 21.6V37H141.012L133.334 27.65V37H129.814V21.6H132.762L140.418 30.95V21.6H143.938ZM147.582 21.6H151.146V37H147.582V21.6ZM164.503 37L160.785 31.654L157.133 37H153.041L158.739 29.168L153.327 21.6H157.375L160.917 26.594L164.393 21.6H168.243L162.875 29.036L168.617 37H164.503Z" fill="#0E9CFC"/>
<path d="M63.632 48.096V51.946H68.7V52.842H63.632V57H62.596V47.2H69.316V48.096H63.632ZM77.3354 47.2H78.3714V57H77.3354V47.2ZM95.63 47.2V57H94.776L88.476 49.048V57H87.44V47.2H88.294L94.608 55.152V47.2H95.63ZM110.855 54.382H105.395L104.219 57H103.141L107.621 47.2H108.643L113.123 57H112.031L110.855 54.382ZM110.477 53.542L108.125 48.278L105.773 53.542H110.477ZM128.814 47.2V57H127.96L121.66 49.048V57H120.624V47.2H121.478L127.792 55.152V47.2H128.814ZM142.148 57.084C141.178 57.084 140.3 56.8693 139.516 56.44C138.742 56.0107 138.13 55.418 137.682 54.662C137.244 53.8967 137.024 53.0427 137.024 52.1C137.024 51.1573 137.244 50.308 137.682 49.552C138.13 48.7867 138.746 48.1893 139.53 47.76C140.314 47.3307 141.192 47.116 142.162 47.116C142.89 47.116 143.562 47.2373 144.178 47.48C144.794 47.7227 145.317 48.0773 145.746 48.544L145.088 49.202C144.323 48.4273 143.357 48.04 142.19 48.04C141.416 48.04 140.711 48.2173 140.076 48.572C139.442 48.9267 138.942 49.412 138.578 50.028C138.224 50.644 138.046 51.3347 138.046 52.1C138.046 52.8653 138.224 53.556 138.578 54.172C138.942 54.788 139.442 55.2733 140.076 55.628C140.711 55.9827 141.416 56.16 142.19 56.16C143.366 56.16 144.332 55.768 145.088 54.984L145.746 55.642C145.317 56.1087 144.79 56.468 144.164 56.72C143.548 56.9627 142.876 57.084 142.148 57.084ZM153.835 47.2H154.871V57H153.835V47.2ZM170.086 54.382H164.626L163.45 57H162.372L166.852 47.2H167.874L172.354 57H171.262L170.086 54.382ZM169.708 53.542L167.356 48.278L165.004 53.542H169.708ZM179.855 47.2H180.891V56.104H186.379V57H179.855V47.2ZM196.572 57.084C195.844 57.084 195.144 56.9673 194.472 56.734C193.809 56.5007 193.296 56.1927 192.932 55.81L193.338 55.012C193.692 55.3667 194.164 55.656 194.752 55.88C195.34 56.0947 195.946 56.202 196.572 56.202C197.449 56.202 198.107 56.0433 198.546 55.726C198.984 55.3993 199.204 54.9793 199.204 54.466C199.204 54.074 199.082 53.7613 198.84 53.528C198.606 53.2947 198.317 53.1173 197.972 52.996C197.626 52.8653 197.146 52.7253 196.53 52.576C195.792 52.3893 195.204 52.212 194.766 52.044C194.327 51.8667 193.949 51.6007 193.632 51.246C193.324 50.8913 193.17 50.4107 193.17 49.804C193.17 49.3093 193.3 48.8613 193.562 48.46C193.823 48.0493 194.224 47.7227 194.766 47.48C195.307 47.2373 195.979 47.116 196.782 47.116C197.342 47.116 197.888 47.1953 198.42 47.354C198.961 47.5033 199.428 47.7133 199.82 47.984L199.47 48.81C199.059 48.5393 198.62 48.3387 198.154 48.208C197.687 48.068 197.23 47.998 196.782 47.998C195.923 47.998 195.274 48.166 194.836 48.502C194.406 48.8287 194.192 49.2533 194.192 49.776C194.192 50.168 194.308 50.4853 194.542 50.728C194.784 50.9613 195.083 51.1433 195.438 51.274C195.802 51.3953 196.287 51.5307 196.894 51.68C197.612 51.8573 198.191 52.0347 198.63 52.212C199.078 52.38 199.456 52.6413 199.764 52.996C200.072 53.3413 200.226 53.8127 200.226 54.41C200.226 54.9047 200.09 55.3573 199.82 55.768C199.558 56.1693 199.152 56.4913 198.602 56.734C198.051 56.9673 197.374 57.084 196.572 57.084Z" fill="#0E9CFC"/>
</svg>
