<svg width="22" height="35" viewBox="0 0 22 35" fill="none" xmlns="http://www.w3.org/2000/svg">
<path fill-rule="evenodd" clip-rule="evenodd" d="M0.459042 22.3312C0.604185 22.1857 0.776609 22.0703 0.966437 21.9915C1.15627 21.9127 1.35977 21.8722 1.56529 21.8722C1.77082 21.8722 1.97432 21.9127 2.16415 21.9915C2.35398 22.0703 2.5264 22.1857 2.67154 22.3312L10.9403 30.6031L19.209 22.3312C19.5024 22.0378 19.9004 21.873 20.3153 21.873C20.7302 21.873 21.1281 22.0378 21.4215 22.3312C21.7149 22.6246 21.8798 23.0226 21.8798 23.4375C21.8798 23.8524 21.7149 24.2503 21.4215 24.5437L12.0465 33.9187C11.9014 34.0643 11.729 34.1797 11.5391 34.2585C11.3493 34.3372 11.1458 34.3778 10.9403 34.3778C10.7348 34.3778 10.5313 34.3372 10.3414 34.2585C10.1516 34.1797 9.97919 34.0643 9.83404 33.9187L0.459042 24.5437C0.313532 24.3986 0.198085 24.2262 0.119315 24.0363C0.0405449 23.8465 0 23.643 0 23.4375C0 23.232 0.0405449 23.0285 0.119315 22.8386C0.198085 22.6488 0.313532 22.4764 0.459042 22.3312Z" fill="#0E9CFC"/>
<path fill-rule="evenodd" clip-rule="evenodd" d="M10.9403 0C11.3547 0 11.7521 0.16462 12.0452 0.457646C12.3382 0.750672 12.5028 1.1481 12.5028 1.5625V29.6875C12.5028 30.1019 12.3382 30.4993 12.0452 30.7924C11.7521 31.0854 11.3547 31.25 10.9403 31.25C10.5259 31.25 10.1285 31.0854 9.83545 30.7924C9.54243 30.4993 9.37781 30.1019 9.37781 29.6875V1.5625C9.37781 1.1481 9.54243 0.750672 9.83545 0.457646C10.1285 0.16462 10.5259 0 10.9403 0Z" fill="#0E9CFC"/>
</svg>
