<svg width="30" height="30" viewBox="0 0 30 30" fill="none" xmlns="http://www.w3.org/2000/svg">
<path d="M27.5 21.1501V24.9001C27.5014 25.2482 27.4301 25.5928 27.2906 25.9118C27.1511 26.2308 26.9466 26.5171 26.6901 26.7525C26.4335 26.9878 26.1307 27.167 25.8009 27.2785C25.4711 27.39 25.1217 27.4315 24.775 27.4001C20.9285 26.9822 17.2337 25.6678 13.9875 23.5626C10.9673 21.6435 8.40665 19.0828 6.48748 16.0626C4.37495 12.8016 3.06028 9.08886 2.64998 5.22512C2.61874 4.87945 2.65982 4.53107 2.7706 4.20215C2.88138 3.87323 3.05944 3.57098 3.29343 3.31465C3.52743 3.05831 3.81223 2.85351 4.12972 2.71327C4.4472 2.57304 4.7904 2.50045 5.13748 2.50012H8.88748C9.49411 2.49415 10.0822 2.70897 10.5422 3.10454C11.0021 3.5001 11.3026 4.04943 11.3875 4.65012C11.5458 5.8502 11.8393 7.02853 12.2625 8.16262C12.4307 8.61003 12.4671 9.09626 12.3674 9.56372C12.2677 10.0312 12.0361 10.4603 11.7 10.8001L10.1125 12.3876C11.8919 15.5171 14.483 18.1082 17.6125 19.8876L19.2 18.3001C19.5398 17.964 19.9689 17.7324 20.4364 17.6327C20.9038 17.533 21.3901 17.5694 21.8375 17.7376C22.9716 18.1608 24.1499 18.4543 25.35 18.6126C25.9572 18.6983 26.5117 19.0041 26.9081 19.472C27.3046 19.9399 27.5152 20.5371 27.5 21.1501Z" stroke="#0E9CFC" stroke-width="2" stroke-linecap="round" stroke-linejoin="round"/>
</svg>
