<svg width="40" height="40" viewBox="0 0 40 40" fill="none" xmlns="http://www.w3.org/2000/svg">
<g clip-path="url(#clip0)">
<path d="M5.33332 21.3334H6.66665C7.02027 21.3334 7.35941 21.1929 7.60946 20.9428C7.85951 20.6928 7.99998 20.3537 7.99998 20V18.6667C7.99998 18.3131 7.85951 17.9739 7.60946 17.7239C7.35941 17.4739 7.02027 17.3334 6.66665 17.3334H5.33332C4.9797 17.3334 4.64056 17.4739 4.39051 17.7239C4.14046 17.9739 3.99998 18.3131 3.99998 18.6667V20C3.99998 20.3537 4.14046 20.6928 4.39051 20.9428C4.64056 21.1929 4.9797 21.3334 5.33332 21.3334ZM5.33332 18.6667H6.66665V20H5.33332V18.6667Z" fill="white"/>
<path d="M10.6667 21.3334H12C12.3536 21.3334 12.6928 21.1929 12.9428 20.9428C13.1929 20.6928 13.3333 20.3537 13.3333 20V18.6667C13.3333 18.3131 13.1929 17.9739 12.9428 17.7239C12.6928 17.4739 12.3536 17.3334 12 17.3334H10.6667C10.3131 17.3334 9.97392 17.4739 9.72387 17.7239C9.47382 17.9739 9.33334 18.3131 9.33334 18.6667V20C9.33334 20.3537 9.47382 20.6928 9.72387 20.9428C9.97392 21.1929 10.3131 21.3334 10.6667 21.3334ZM10.6667 18.6667H12V20H10.6667V18.6667Z" fill="white"/>
<path d="M5.33332 26.6666H6.66665C7.02027 26.6666 7.35941 26.5262 7.60946 26.2761C7.85951 26.0261 7.99998 25.6869 7.99998 25.3333V24C7.99998 23.6463 7.85951 23.3072 7.60946 23.0571C7.35941 22.8071 7.02027 22.6666 6.66665 22.6666H5.33332C4.9797 22.6666 4.64056 22.8071 4.39051 23.0571C4.14046 23.3072 3.99998 23.6463 3.99998 24V25.3333C3.99998 25.6869 4.14046 26.0261 4.39051 26.2761C4.64056 26.5262 4.9797 26.6666 5.33332 26.6666ZM5.33332 24H6.66665V25.3333H5.33332V24Z" fill="white"/>
<path d="M10.6667 26.6666H12C12.3536 26.6666 12.6928 26.5262 12.9428 26.2761C13.1929 26.0261 13.3333 25.6869 13.3333 25.3333V24C13.3333 23.6463 13.1929 23.3072 12.9428 23.0571C12.6928 22.8071 12.3536 22.6666 12 22.6666H10.6667C10.3131 22.6666 9.97392 22.8071 9.72387 23.0571C9.47382 23.3072 9.33334 23.6463 9.33334 24V25.3333C9.33334 25.6869 9.47382 26.0261 9.72387 26.2761C9.97392 26.5262 10.3131 26.6666 10.6667 26.6666ZM10.6667 24H12V25.3333H10.6667V24Z" fill="white"/>
<path d="M5.33332 32H6.66665C7.02027 32 7.35941 31.8595 7.60946 31.6095C7.85951 31.3594 7.99998 31.0203 7.99998 30.6667V29.3333C7.99998 28.9797 7.85951 28.6406 7.60946 28.3905C7.35941 28.1405 7.02027 28 6.66665 28H5.33332C4.9797 28 4.64056 28.1405 4.39051 28.3905C4.14046 28.6406 3.99998 28.9797 3.99998 29.3333V30.6667C3.99998 31.0203 4.14046 31.3594 4.39051 31.6095C4.64056 31.8595 4.9797 32 5.33332 32ZM5.33332 29.3333H6.66665V30.6667H5.33332V29.3333Z" fill="white"/>
<path d="M10.6667 32H12C12.3536 32 12.6928 31.8595 12.9428 31.6095C13.1929 31.3594 13.3333 31.0203 13.3333 30.6667V29.3333C13.3333 28.9797 13.1929 28.6406 12.9428 28.3905C12.6928 28.1405 12.3536 28 12 28H10.6667C10.3131 28 9.97392 28.1405 9.72387 28.3905C9.47382 28.6406 9.33334 28.9797 9.33334 29.3333V30.6667C9.33334 31.0203 9.47382 31.3594 9.72387 31.6095C9.97392 31.8595 10.3131 32 10.6667 32ZM10.6667 29.3333H12V30.6667H10.6667V29.3333Z" fill="white"/>
<path d="M20 22.6666H18.6667C18.313 22.6666 17.9739 22.8071 17.7238 23.0571C17.4738 23.3072 17.3333 23.6463 17.3333 24V25.3333C17.3333 25.6869 17.4738 26.0261 17.7238 26.2761C17.9739 26.5262 18.313 26.6666 18.6667 26.6666H20C20.3536 26.6666 20.6927 26.5262 20.9428 26.2761C21.1928 26.0261 21.3333 25.6869 21.3333 25.3333V24C21.3333 23.6463 21.1928 23.3072 20.9428 23.0571C20.6927 22.8071 20.3536 22.6666 20 22.6666ZM18.6667 25.3333V24H20V25.3333H18.6667Z" fill="white"/>
<path d="M20 28H18.6667C18.313 28 17.9739 28.1405 17.7238 28.3905C17.4738 28.6406 17.3333 28.9797 17.3333 29.3333V30.6667C17.3333 31.0203 17.4738 31.3594 17.7238 31.6095C17.9739 31.8595 18.313 32 18.6667 32H20C20.3536 32 20.6927 31.8595 20.9428 31.6095C21.1928 31.3594 21.3333 31.0203 21.3333 30.6667V29.3333C21.3333 28.9797 21.1928 28.6406 20.9428 28.3905C20.6927 28.1405 20.3536 28 20 28ZM18.6667 30.6667V29.3333H20V30.6667H18.6667Z" fill="white"/>
<path d="M25.3333 28H24C23.6464 28 23.3073 28.1405 23.0572 28.3905C22.8072 28.6406 22.6667 28.9797 22.6667 29.3333V30.6667C22.6667 31.0203 22.8072 31.3594 23.0572 31.6095C23.3073 31.8595 23.6464 32 24 32H25.3333C25.687 32 26.0261 31.8595 26.2762 31.6095C26.5262 31.3594 26.6667 31.0203 26.6667 30.6667V29.3333C26.6667 28.9797 26.5262 28.6406 26.2762 28.3905C26.0261 28.1405 25.687 28 25.3333 28ZM24 30.6667V29.3333H25.3333V30.6667H24Z" fill="white"/>
<path d="M20 33.3334H18.6667C18.313 33.3334 17.9739 33.4738 17.7238 33.7239C17.4738 33.9739 17.3333 34.3131 17.3333 34.6667V36C17.3333 36.3537 17.4738 36.6928 17.7238 36.9429C17.9739 37.1929 18.313 37.3334 18.6667 37.3334H20C20.3536 37.3334 20.6927 37.1929 20.9428 36.9429C21.1928 36.6928 21.3333 36.3537 21.3333 36V34.6667C21.3333 34.3131 21.1928 33.9739 20.9428 33.7239C20.6927 33.4738 20.3536 33.3334 20 33.3334ZM18.6667 36V34.6667H20V36H18.6667Z" fill="white"/>
<path d="M25.3333 33.3334H24C23.6464 33.3334 23.3073 33.4738 23.0572 33.7239C22.8072 33.9739 22.6667 34.3131 22.6667 34.6667V36C22.6667 36.3537 22.8072 36.6928 23.0572 36.9429C23.3073 37.1929 23.6464 37.3334 24 37.3334H25.3333C25.687 37.3334 26.0261 37.1929 26.2762 36.9429C26.5262 36.6928 26.6667 36.3537 26.6667 36V34.6667C26.6667 34.3131 26.5262 33.9739 26.2762 33.7239C26.0261 33.4738 25.687 33.3334 25.3333 33.3334ZM24 36V34.6667H25.3333V36H24Z" fill="white"/>
<path d="M34.7607 7.316C34.9197 7.29671 35.0662 7.22015 35.1728 7.10063C35.2795 6.98111 35.3389 6.82684 35.34 6.66667C35.34 6.48986 35.2698 6.32029 35.1447 6.19526C35.0197 6.07024 34.8501 6 34.6733 6H33.3607L34.5647 3.19133C34.6515 2.98857 34.6866 2.76745 34.6669 2.54777C34.6473 2.32809 34.5734 2.11673 34.452 1.93261C34.3305 1.74849 34.1653 1.59736 33.9712 1.49277C33.777 1.38819 33.5599 1.33341 33.3393 1.33333H30.2667L30.1253 0.91C30.0365 0.644766 29.8666 0.414177 29.6395 0.250866C29.4124 0.0875547 29.1397 -0.000207074 28.86 3.66895e-07H27.3407C27.1185 3.38657e-05 26.8998 0.0555859 26.7046 0.161608C26.5094 0.267631 26.3437 0.420762 26.2227 0.607088C26.1017 0.793413 26.0291 1.00703 26.0117 1.22851C25.9942 1.45 26.0324 1.67234 26.1227 1.87533L27.956 6H26.6733C26.4965 6 26.327 6.07024 26.2019 6.19526C26.0769 6.32029 26.0067 6.48986 26.0067 6.66667C26.0075 6.83069 26.0694 6.98851 26.1804 7.10932C26.2913 7.23013 26.4433 7.30524 26.6067 7.32C25.0953 8.54417 23.8491 10.0634 22.9441 11.7849C22.0391 13.5065 21.4942 15.3943 21.3427 17.3333H16V15.8773C16.4445 15.7208 16.8192 15.412 17.0578 15.0056C17.2964 14.5993 17.3834 14.1216 17.3036 13.6572C17.2237 13.1928 16.9821 12.7717 16.6215 12.4683C16.2609 12.165 15.8046 11.9991 15.3333 12H2C1.52878 11.9991 1.07245 12.165 0.711838 12.4683C0.351222 12.7717 0.109591 13.1928 0.0297418 13.6572C-0.0501075 14.1216 0.036978 14.5993 0.275574 15.0056C0.51417 15.412 0.888879 15.7208 1.33333 15.8773V38.6667H0.666667C0.489856 38.6667 0.320286 38.7369 0.195262 38.8619C0.0702379 38.987 0 39.1565 0 39.3333C0 39.5101 0.0702379 39.6797 0.195262 39.8047C0.320286 39.9298 0.489856 40 0.666667 40H30C30.1768 40 30.3464 39.9298 30.4714 39.8047C30.5964 39.6797 30.6667 39.5101 30.6667 39.3333C30.6667 39.1565 30.5964 38.987 30.4714 38.8619C30.3464 38.7369 30.1768 38.6667 30 38.6667H29.3333V25.904C29.7608 25.9622 30.1913 25.9943 30.6227 26H30.6807C35.796 26 39.9713 22.2447 40 17.6033C40.018 14.1647 37.834 9.61533 34.7607 7.316ZM27.3407 1.33333H28.86L29.154 2.21133L29.5933 3.54067C29.637 3.6742 29.7218 3.79052 29.8355 3.87301C29.9493 3.9555 30.0862 3.99994 30.2267 4C30.2976 4.00006 30.3681 3.98858 30.4353 3.966C30.6031 3.91055 30.7419 3.7908 30.8214 3.63306C30.9009 3.47531 30.9145 3.29246 30.8593 3.12467L30.708 2.66667H33.34L31.9107 6H29.4147L27.3407 1.33333ZM21.4233 18.6667C21.4852 19.1194 21.5876 19.5656 21.7293 20H16V18.6667H21.4233ZM2 13.3333H15.3333C15.5101 13.3333 15.6797 13.4036 15.8047 13.5286C15.9298 13.6536 16 13.8232 16 14C16 14.1768 15.9298 14.3464 15.8047 14.4714C15.6797 14.5964 15.5101 14.6667 15.3333 14.6667H2C1.82319 14.6667 1.65362 14.5964 1.5286 14.4714C1.40357 14.3464 1.33333 14.1768 1.33333 14C1.33333 13.8232 1.40357 13.6536 1.5286 13.5286C1.65362 13.4036 1.82319 13.3333 2 13.3333ZM2.66667 16H14.6667V38.6667H12.6667V34.6667C12.8435 34.6667 13.013 34.5964 13.1381 34.4714C13.2631 34.3464 13.3333 34.1768 13.3333 34C13.3333 33.8232 13.2631 33.6536 13.1381 33.5286C13.013 33.4036 12.8435 33.3333 12.6667 33.3333H4.66667C4.48986 33.3333 4.32029 33.4036 4.19526 33.5286C4.07024 33.6536 4 33.8232 4 34C4 34.1768 4.07024 34.3464 4.19526 34.4714C4.32029 34.5964 4.48986 34.6667 4.66667 34.6667V38.6667H2.66667V16ZM6 34.6667H8V38.6667H6V34.6667ZM9.33333 38.6667V34.6667H11.3333V38.6667H9.33333ZM28 38.6667H16V21.3333H22.324C22.6204 21.8684 22.9747 22.3692 23.3807 22.8267C23.1661 22.9387 22.9862 23.1072 22.8604 23.314C22.7346 23.5208 22.6676 23.758 22.6667 24V25.3333C22.6667 25.687 22.8071 26.0261 23.0572 26.2761C23.3072 26.5262 23.6464 26.6667 24 26.6667H25.3333C25.687 26.6667 26.0261 26.5262 26.2761 26.2761C26.5262 26.0261 26.6667 25.687 26.6667 25.3333V25.1753C27.0993 25.3639 27.5449 25.5212 28 25.646V38.6667ZM24 24H24.6473C24.8687 24.1693 25.098 24.328 25.3333 24.4767V25.3333H24V24ZM30.6807 24.6667H30.63C28.5399 24.678 26.5192 23.9169 24.956 22.5293C24.2394 21.9049 23.6645 21.1346 23.2697 20.27C22.8749 19.4054 22.6693 18.4665 22.6667 17.516C22.686 13.7427 25.8 8.34133 29.4287 7.34L31.922 7.33333C35.5887 8.324 38.686 13.7753 38.6667 17.6C38.6427 21.5047 35.0667 24.6667 30.6807 24.6667Z" fill="white"/>
<path d="M30.6734 15.3333C30.5564 15.3332 30.4414 15.3023 30.3402 15.2437C30.2389 15.1851 30.1548 15.1009 30.0964 14.9996C30.038 14.8982 30.0073 14.7833 30.0073 14.6663C30.0074 14.5493 30.0383 14.4343 30.0968 14.3331C30.1554 14.2318 30.2395 14.1477 30.3409 14.0892C30.4422 14.0307 30.5572 14 30.6742 14C30.7912 14 30.9061 14.0308 31.0074 14.0894C31.1087 14.1479 31.1929 14.232 31.2514 14.3333C31.293 14.413 31.3504 14.4834 31.42 14.5403C31.4896 14.5973 31.57 14.6395 31.6563 14.6646C31.7427 14.6896 31.8332 14.697 31.9225 14.6861C32.0117 14.6753 32.0979 14.6465 32.1757 14.6015C32.2535 14.5565 32.3215 14.4962 32.3754 14.4243C32.4294 14.3524 32.4682 14.2703 32.4896 14.1829C32.511 14.0956 32.5145 14.0048 32.4999 13.9161C32.4853 13.8274 32.4529 13.7425 32.4047 13.6667C32.1631 13.2605 31.785 12.9534 31.338 12.8V12.6667C31.338 12.4899 31.2678 12.3203 31.1428 12.1953C31.0177 12.0702 30.8482 12 30.6714 12C30.4945 12 30.325 12.0702 30.1999 12.1953C30.0749 12.3203 30.0047 12.4899 30.0047 12.6667V12.7893C29.5602 12.9459 29.1855 13.2547 28.9469 13.661C28.7083 14.0674 28.6212 14.545 28.7011 15.0095C28.7809 15.4739 29.0226 15.895 29.3832 16.1983C29.7438 16.5017 30.2001 16.6676 30.6714 16.6667C30.7883 16.6668 30.9033 16.6977 31.0045 16.7563C31.1058 16.8149 31.1899 16.8991 31.2483 17.0004C31.3067 17.1018 31.3374 17.2167 31.3374 17.3337C31.3373 17.4507 31.3064 17.5657 31.2479 17.6669C31.1893 17.7682 31.1052 17.8523 31.0038 17.9108C30.9025 17.9693 30.7875 18 30.6705 18C30.5535 18 30.4386 17.9692 30.3373 17.9106C30.236 17.8521 30.1519 17.768 30.0934 17.6667C30.0022 17.5193 29.8571 17.4132 29.6891 17.3709C29.521 17.3286 29.343 17.3534 29.1929 17.4401C29.0428 17.5269 28.9324 17.6686 28.8851 17.8353C28.8377 18.0021 28.8572 18.1807 28.9394 18.3333C29.1811 18.7394 29.5591 19.0465 30.006 19.2V19.3333C30.006 19.5101 30.0763 19.6797 30.2013 19.8047C30.3263 19.9298 30.4959 20 30.6727 20C30.8495 20 31.0191 19.9298 31.1441 19.8047C31.2691 19.6797 31.3394 19.5101 31.3394 19.3333V19.2107C31.7838 19.0541 32.1585 18.7453 32.3971 18.339C32.6357 17.9326 32.7228 17.455 32.6429 16.9905C32.5631 16.5261 32.3215 16.105 31.9608 15.8017C31.6002 15.4983 31.1439 15.3324 30.6727 15.3333H30.6734Z" fill="white"/>
<path d="M29.938 9.212C29.8994 9.13341 29.8456 9.06321 29.7798 9.0054C29.7141 8.94759 29.6375 8.9033 29.5546 8.87507C29.4718 8.84684 29.3841 8.83522 29.2967 8.84087C29.2093 8.84652 29.1239 8.86933 29.0453 8.908C27.506 9.66667 25.9787 11.4667 24.954 13.7253C24.918 13.8051 24.898 13.8912 24.8953 13.9788C24.8925 14.0663 24.907 14.1535 24.938 14.2354C24.9689 14.3173 25.0157 14.3923 25.0757 14.4561C25.1356 14.5199 25.2075 14.5713 25.2873 14.6073C25.3733 14.6466 25.4668 14.6669 25.5613 14.6667C25.6897 14.6668 25.8153 14.6298 25.9231 14.5603C26.031 14.4908 26.1165 14.3916 26.1693 14.2747C27.0547 12.3193 28.3827 10.7213 29.636 10.1047C29.7944 10.0263 29.9151 9.88822 29.9718 9.72084C30.0284 9.55346 30.0162 9.37044 29.938 9.212Z" fill="white"/>
<path d="M24.836 16.0073C24.6612 15.9822 24.4836 16.027 24.3416 16.1319C24.1996 16.2369 24.1046 16.3935 24.0773 16.568C24.0433 16.7998 24.021 17.0332 24.0106 17.2673C24.0064 17.3548 24.0195 17.4422 24.0491 17.5246C24.0787 17.607 24.1242 17.6828 24.1831 17.7476C24.2419 17.8125 24.313 17.865 24.3922 17.9024C24.4714 17.9397 24.5572 17.9611 24.6446 17.9653H24.6773C24.8487 17.9655 25.0136 17.8997 25.1378 17.7815C25.2619 17.6633 25.3358 17.5018 25.344 17.3306C25.3531 17.1411 25.3722 16.9522 25.4013 16.7646C25.4141 16.6778 25.4097 16.5892 25.3882 16.5041C25.3667 16.4189 25.3286 16.3389 25.276 16.2685C25.2235 16.1981 25.1576 16.1388 25.0821 16.094C25.0065 16.0492 24.9229 16.0197 24.836 16.0073Z" fill="white"/>
</g>
<defs>
<clipPath id="clip0">
<rect width="40" height="40" fill="white"/>
</clipPath>
</defs>
</svg>
